<svg width="24" height="24" viewBox="0 0 24 24" fill="none" xmlns="http://www.w3.org/2000/svg">
<path d="M19.8291 6.61201L14.3091 1.07701C14.0168 0.775814 13.6671 0.53636 13.2806 0.372839C12.8941 0.209319 12.4787 0.125061 12.0591 0.125061C11.6394 0.125061 11.224 0.209319 10.8375 0.372839C10.451 0.53636 10.1013 0.775814 9.80905 1.07701L4.27205 6.61201L12.0271 10.482L19.8291 6.61201ZM21.9461 8.84701L23.0411 9.94201C23.3441 10.2332 23.5853 10.5825 23.75 10.9692C23.9147 11.3558 23.9996 11.7717 23.9996 12.192C23.9996 12.6123 23.9147 13.0282 23.75 13.4148C23.5853 13.8015 23.3441 14.1509 23.0411 14.442L14.2201 23.35C14.0108 23.5637 13.7675 23.7411 13.5001 23.875V13.077L21.9461 8.84701ZM2.05305 8.84701L0.958054 9.94201C0.654979 10.2332 0.413849 10.5825 0.249133 10.9692C0.0844172 11.3558 -0.000488281 11.7717 -0.000488281 12.192C-0.000488281 12.6123 0.0844172 13.0282 0.249133 13.4148C0.413849 13.8015 0.654979 14.1509 0.958054 14.442L9.78005 23.35C9.99005 23.564 10.2331 23.742 10.5001 23.875V13.077L2.05305 8.84701Z" fill="#E6E6E6"/>
</svg>
